<svg xmlns="http://www.w3.org/2000/svg" viewBox="0 0 500 500"><g id="freepik--device-1--inject-73"><g id="freepik--Drone--inject-73"><path d="M274.61,215.37c8.26,0,10.88-53.63,10.88-53.63H263.73s2.62,53.63,10.88,53.63" style="fill:#37474f"></path><path d="M282.3,157.3a17,17,0,0,0-15.38,0c-4.25,2.45-4.25,6.43,0,8.88a17,17,0,0,0,15.38,0C286.55,163.73,286.55,159.75,282.3,157.3Z" style="fill:#455a64"></path><polygon points="397.16 269.53 263.3 249.18 278.92 177.52 278.92 171.06 266.96 170.39 212.85 246.1 65.83 244.44 62.32 250.81 62.32 257.27 196.01 283.43 180.56 349.28 180.56 355.74 192.52 356.41 246.63 286.65 393.65 282.36 397.16 276 397.16 269.53" style="fill:#37474f"></polygon><polygon points="65.83 244.44 212.85 246.1 266.96 170.39 278.92 171.06 260.68 248.78 397.16 269.53 393.65 275.9 246.63 274.24 192.52 349.95 180.56 349.28 198.79 271.56 62.31 250.81 65.83 244.44" style="fill:#455a64"></polygon><path d="M186.77,401.46c8.27,0,10.88-53.63,10.88-53.63H175.9s2.61,53.63,10.87,53.63" style="fill:#37474f"></path><path d="M194.47,343.39a17,17,0,0,0-15.39,0c-4.25,2.45-4.25,6.43,0,8.88a17,17,0,0,0,15.39,0C198.71,349.82,198.71,345.84,194.47,343.39Z" style="fill:#455a64"></path><path d="M229.21,320.76l-42.44,24.49-42.43-24.49C167.76,307.23,205.76,307.23,229.21,320.76Z" style="fill:#F13024;opacity:0.30000000000000004"></path><path d="M229.21,369.75l-42.44-24.5,42.44-24.49C252.64,334.28,252.64,356.22,229.21,369.75Z" style="fill:#F13024;opacity:0.1"></path><path d="M229.21,369.75c-23.45,13.53-61.45,13.53-84.87,0l42.43-24.5Z" style="fill:#F13024;opacity:0.30000000000000004"></path><path d="M186.77,345.25l-42.43,24.5c-23.43-13.53-23.43-35.47,0-49Z" style="fill:#F13024;opacity:0.1"></path><path d="M193,348.37v-2.66H191a9.85,9.85,0,0,0-8.39,0h-2.07v2.67h0a3.14,3.14,0,0,0,1.84,2.55,9.79,9.79,0,0,0,8.85,0A3.08,3.08,0,0,0,193,348.37Z" style="fill:#F13024"></path><path d="M193,348.37v-2.66H191a9.85,9.85,0,0,0-8.39,0h-2.07v2.67h0a3.14,3.14,0,0,0,1.84,2.55,9.79,9.79,0,0,0,8.85,0A3.08,3.08,0,0,0,193,348.37Z" style="opacity:0.30000000000000004"></path><path d="M191.2,343.15a9.79,9.79,0,0,0-8.85,0c-2.45,1.42-2.45,3.7,0,5.12a9.79,9.79,0,0,0,8.85,0C193.65,346.85,193.65,344.57,191.2,343.15Z" style="fill:#F13024"></path><path d="M189,344.44a4.85,4.85,0,0,0-4.39,0,1.34,1.34,0,0,0,0,2.54,4.85,4.85,0,0,0,4.39,0A1.34,1.34,0,0,0,189,344.44Z" style="fill:#455a64"></path><path d="M193,345h0s-1.49-8.62-6.27-8.62-6.26,8.62-6.26,8.62h0c-.13,1,.47,2.06,1.82,2.84a9.81,9.81,0,0,0,8.89,0C192.57,347,193.17,346,193,345Z" style="fill:#F13024"></path><path d="M193,345h0s-1.49-8.62-6.27-8.62-6.26,8.62-6.26,8.62h0c-.13,1,.47,2.06,1.82,2.84a9.81,9.81,0,0,0,8.89,0C192.57,347,193.17,346,193,345Z" style="fill:#fff;opacity:0.5"></path><path d="M185.41,347.27c-2.84-1.71-3.41-6.3-.84-10.21-3,2.05-4.06,7.91-4.06,7.91h0c-.13,1,.47,2.06,1.82,2.84a9.81,9.81,0,0,0,8.89,0l.33-.21C190.09,348,187.4,348.46,185.41,347.27Z" style="fill:#F13024;opacity:0.30000000000000004"></path><path d="M185.49,339.12a3,3,0,0,0,.79.84c1.73,1.37,3.35,2.55,4.41,4.57.23.43.65,1,1.2.63.75-.57-.73-3.52-1.06-4.25a5.83,5.83,0,0,0-3-3.31,2.32,2.32,0,0,0-1.81.08,1.22,1.22,0,0,0-.61.69A1,1,0,0,0,185.49,339.12Z" style="fill:#fff;opacity:0.30000000000000004"></path><path d="M396.21,325.56c8.26,0,10.88-53.63,10.88-53.63H385.33s2.62,53.63,10.88,53.63" style="fill:#37474f"></path><path d="M403.9,267.49a17,17,0,0,0-15.38,0c-4.25,2.45-4.25,6.43,0,8.88a17,17,0,0,0,15.38,0C408.15,273.92,408.15,269.94,403.9,267.49Z" style="fill:#455a64"></path><path d="M438.65,244.85l-42.44,24.5-42.44-24.5C377.2,231.33,415.19,231.33,438.65,244.85Z" style="fill:#F13024;opacity:0.30000000000000004"></path><path d="M438.65,293.85l-42.44-24.5,42.44-24.5C462.07,258.38,462.07,280.32,438.65,293.85Z" style="fill:#F13024;opacity:0.1"></path><path d="M438.65,293.85c-23.46,13.52-61.45,13.52-84.88,0l42.44-24.5Z" style="fill:#F13024;opacity:0.30000000000000004"></path><path d="M396.21,269.35l-42.44,24.5c-23.42-13.53-23.42-35.47,0-49Z" style="fill:#F13024;opacity:0.1"></path><path d="M402.47,272.47v-2.66h-2.06a9.88,9.88,0,0,0-8.4,0H390v2.67h0a3.11,3.11,0,0,0,1.83,2.55,9.81,9.81,0,0,0,8.86,0A3.13,3.13,0,0,0,402.47,272.47Z" style="fill:#F13024"></path><path d="M402.47,272.47v-2.66h-2.06a9.88,9.88,0,0,0-8.4,0H390v2.67h0a3.11,3.11,0,0,0,1.83,2.55,9.81,9.81,0,0,0,8.86,0A3.13,3.13,0,0,0,402.47,272.47Z" style="opacity:0.30000000000000004"></path><path d="M400.64,267.25a9.81,9.81,0,0,0-8.86,0c-2.44,1.41-2.44,3.7,0,5.11a9.75,9.75,0,0,0,8.86,0C403.08,271,403.08,268.66,400.64,267.25Z" style="fill:#F13024"></path><path d="M398.41,268.54a4.87,4.87,0,0,0-4.4,0,1.34,1.34,0,0,0,0,2.54,4.87,4.87,0,0,0,4.4,0A1.34,1.34,0,0,0,398.41,268.54Z" style="fill:#455a64"></path><path d="M402.45,269.29h0s-1.5-8.62-6.27-8.62-6.27,8.62-6.27,8.62h0c-.13,1,.47,2.06,1.82,2.84a9.79,9.79,0,0,0,8.88,0C402,271.35,402.58,270.31,402.45,269.29Z" style="fill:#F13024"></path><path d="M402.45,269.29h0s-1.5-8.62-6.27-8.62-6.27,8.62-6.27,8.62h0c-.13,1,.47,2.06,1.82,2.84a9.79,9.79,0,0,0,8.88,0C402,271.35,402.58,270.31,402.45,269.29Z" style="fill:#fff;opacity:0.5"></path><path d="M394.83,271.59c-2.84-1.71-3.41-6.3-.84-10.22-3,2.05-4.07,7.92-4.07,7.92h0c-.13,1,.47,2.06,1.82,2.84a9.79,9.79,0,0,0,8.88,0l.33-.21C399.51,272.31,396.81,272.77,394.83,271.59Z" style="fill:#F13024;opacity:0.30000000000000004"></path><path d="M394.9,263.44a3.15,3.15,0,0,0,.79.84c1.73,1.37,3.35,2.55,4.41,4.56.23.43.66,1,1.2.63.75-.56-.72-3.51-1.06-4.24a5.78,5.78,0,0,0-3-3.31,2.28,2.28,0,0,0-1.81.08,1.16,1.16,0,0,0-.61.68A1,1,0,0,0,394.9,263.44Z" style="fill:#fff;opacity:0.30000000000000004"></path><path d="M71.29,300.92c8.26,0,10.88-53.63,10.88-53.63H60.41S63,300.92,71.29,300.92" style="fill:#37474f"></path><path d="M79,242.85a17,17,0,0,0-15.39,0c-4.25,2.45-4.25,6.43,0,8.88a17,17,0,0,0,15.39,0C83.23,249.28,83.23,245.3,79,242.85Z" style="fill:#455a64"></path><path d="M113.73,220.22,71.29,244.71,28.86,220.22C52.28,206.69,90.28,206.69,113.73,220.22Z" style="fill:#F13024;opacity:0.30000000000000004"></path><path d="M113.73,269.21l-42.44-24.5,42.44-24.49C137.16,233.74,137.16,255.68,113.73,269.21Z" style="fill:#F13024;opacity:0.1"></path><path d="M113.73,269.21c-23.45,13.53-61.45,13.53-84.87,0l42.43-24.5Z" style="fill:#F13024;opacity:0.30000000000000004"></path><path d="M71.29,244.71l-42.43,24.5c-23.43-13.53-23.43-35.47,0-49Z" style="fill:#F13024;opacity:0.1"></path><path d="M77.55,247.83v-2.66H75.49a9.88,9.88,0,0,0-8.4,0H65v2.67h0a3.12,3.12,0,0,0,1.84,2.55,9.79,9.79,0,0,0,8.85,0A3.09,3.09,0,0,0,77.55,247.83Z" style="fill:#F13024"></path><path d="M77.55,247.83v-2.66H75.49a9.88,9.88,0,0,0-8.4,0H65v2.67h0a3.12,3.12,0,0,0,1.84,2.55,9.79,9.79,0,0,0,8.85,0A3.09,3.09,0,0,0,77.55,247.83Z" style="opacity:0.30000000000000004"></path><path d="M75.72,242.61a9.79,9.79,0,0,0-8.85,0c-2.45,1.42-2.45,3.7,0,5.12a9.79,9.79,0,0,0,8.85,0C78.17,246.31,78.17,244,75.72,242.61Z" style="fill:#F13024"></path><path d="M73.49,243.9a4.85,4.85,0,0,0-4.39,0,1.34,1.34,0,0,0,0,2.54,4.85,4.85,0,0,0,4.39,0A1.34,1.34,0,0,0,73.49,243.9Z" style="fill:#455a64"></path><path d="M77.56,244.63h0S76.07,236,71.29,236,65,244.63,65,244.63h0c-.13,1,.47,2.06,1.82,2.84a9.81,9.81,0,0,0,8.89,0C77.09,246.69,77.69,245.65,77.56,244.63Z" style="fill:#F13024"></path><path d="M77.56,244.63h0S76.07,236,71.29,236,65,244.63,65,244.63h0c-.13,1,.47,2.06,1.82,2.84a9.81,9.81,0,0,0,8.89,0C77.09,246.69,77.69,245.65,77.56,244.63Z" style="fill:#fff;opacity:0.5"></path><path d="M69.93,246.93c-2.84-1.71-3.41-6.3-.84-10.22-3,2-4.06,7.92-4.06,7.92h0c-.13,1,.47,2.06,1.82,2.84a9.81,9.81,0,0,0,8.89,0l.33-.21C74.61,247.65,71.91,248.12,69.93,246.93Z" style="fill:#F13024;opacity:0.30000000000000004"></path><path d="M70,238.78a3,3,0,0,0,.79.84c1.73,1.37,3.35,2.55,4.41,4.56.23.44.65,1,1.19.63.76-.56-.72-3.51-1.05-4.24a5.8,5.8,0,0,0-3-3.31,2.28,2.28,0,0,0-1.81.08,1.2,1.2,0,0,0-.61.68A1,1,0,0,0,70,238.78Z" style="fill:#fff;opacity:0.30000000000000004"></path><path d="M317.05,134.66l-42.44,24.5-42.44-24.5C255.6,121.14,293.6,121.14,317.05,134.66Z" style="fill:#F13024;opacity:0.30000000000000004"></path><path d="M317.05,183.66l-42.44-24.5,42.44-24.5C340.47,148.19,340.47,170.13,317.05,183.66Z" style="fill:#F13024;opacity:0.1"></path><path d="M317.05,183.66c-23.45,13.52-61.45,13.52-84.88,0l42.44-24.5Z" style="fill:#F13024;opacity:0.30000000000000004"></path><path d="M274.61,159.16l-42.44,24.5c-23.42-13.53-23.42-35.47,0-49Z" style="fill:#F13024;opacity:0.1"></path><path d="M280.87,162.28v-2.66h-2.06a9.88,9.88,0,0,0-8.4,0h-2.06v2.67h0a3.11,3.11,0,0,0,1.83,2.55,9.81,9.81,0,0,0,8.86,0A3.13,3.13,0,0,0,280.87,162.28Z" style="fill:#F13024"></path><path d="M280.87,162.28v-2.66h-2.06a9.88,9.88,0,0,0-8.4,0h-2.06v2.67h0a3.11,3.11,0,0,0,1.83,2.55,9.81,9.81,0,0,0,8.86,0A3.13,3.13,0,0,0,280.87,162.28Z" style="opacity:0.30000000000000004"></path><path d="M279,157.06a9.81,9.81,0,0,0-8.86,0c-2.44,1.41-2.44,3.7,0,5.11a9.75,9.75,0,0,0,8.86,0C281.48,160.76,281.48,158.47,279,157.06Z" style="fill:#F13024"></path><path d="M276.81,158.35a4.87,4.87,0,0,0-4.4,0,1.34,1.34,0,0,0,0,2.54,4.87,4.87,0,0,0,4.4,0A1.34,1.34,0,0,0,276.81,158.35Z" style="fill:#455a64"></path><path d="M280.87,158.93h0s-1.5-8.63-6.27-8.63-6.27,8.63-6.27,8.63h0a3,3,0,0,0,1.82,2.83,9.81,9.81,0,0,0,8.89,0A3,3,0,0,0,280.87,158.93Z" style="fill:#F13024"></path><path d="M280.87,158.93h0s-1.5-8.63-6.27-8.63-6.27,8.63-6.27,8.63h0a3,3,0,0,0,1.82,2.83,9.81,9.81,0,0,0,8.89,0A3,3,0,0,0,280.87,158.93Z" style="fill:#fff;opacity:0.5"></path><path d="M273.25,161.22c-2.84-1.7-3.41-6.3-.84-10.21-3,2.05-4.07,7.92-4.07,7.92h0a3,3,0,0,0,1.82,2.83,9.79,9.79,0,0,0,8.88,0,2.66,2.66,0,0,0,.33-.21C277.93,161.94,275.23,162.41,273.25,161.22Z" style="fill:#F13024;opacity:0.30000000000000004"></path><path d="M273.33,153.07a3.11,3.11,0,0,0,.78.84c1.73,1.38,3.35,2.55,4.42,4.57.22.43.65,1,1.19.63.75-.57-.72-3.52-1.05-4.24a5.83,5.83,0,0,0-3-3.31,2.28,2.28,0,0,0-1.81.08,1.14,1.14,0,0,0-.61.68A1,1,0,0,0,273.33,153.07Z" style="fill:#fff;opacity:0.30000000000000004"></path><path d="M321,265.21,295.59,238.4s-39-21.3-63.48-34.91S189.28,182.82,167,195.7c-8.19,4.73-11.72,9.15-11.74,13.56,0,6.21,2.48,24.61,3.37,34.63.67,7.54,7,16.36,21.88,25.3,23.57,14.14,60.45,36.65,60.45,36.65l25.88,9.44,39.37-22.73Z" style="fill:#263238"></path><path d="M281.63,287.94,321,265.21,295.59,238.4s-39-21.3-63.48-34.91S189.28,182.82,167,195.7s-10.06,23.45,13.51,37.6,60.45,36.64,60.45,36.64Z" style="fill:#37474f"></path><path d="M321,265.21l-31.79-26.6s-69-38.43-73.06-40.77S203.48,193,203.48,193c-12.74-2.61-23.16-1.79-30.81,2.63h0c-7.66,4.42-11.72,13-1.9,17.8,6.15,3,9.92,4.88,9.92,4.88l70.62,42.18,30.32,27.45Z" style="fill:#455a64"></path><path d="M203.48,193c-12.74-2.61-23.16-1.79-30.81,2.63h0c-7.66,4.42-11.72,13-1.9,17.8,6.15,3,9.92,4.88,9.92,4.88l35.46-20.47C212.09,195.49,203.48,193,203.48,193Z" style="opacity:0.1"></path><polygon points="289.21 238.61 251.31 260.49 281.63 287.94 321 265.21 289.21 238.61" style="opacity:0.1"></polygon><polygon points="281.63 287.94 266.82 315.28 306.19 292.55 321 265.21 281.63 287.94"></polygon><path d="M178.31,267.84c.71.45,1.43.9,2.18,1.35,18.08,10.84,44,26.6,55.07,33.36V283l-57.25-33.05Z" style="fill:#37474f"></path><path d="M195.92,278.48l2.83,1.71V266l-2.83-1.64Zm-6.41-3.86,2.83,1.7V262.26l-2.83-1.64Zm12.81,7.74,2.83,1.71V269.65L202.32,268Zm-19.21-11.6,2.83,1.7v-13.9l-2.83-1.63ZM221.53,294l2.83,1.72v-15l-2.83-1.63Zm6.41-11.21v15.1l2.83,1.72V284.44Zm-12.81,7.32,2.83,1.71V277.05l-2.83-1.64Zm-6.41-3.89,2.83,1.72V273.35l-2.83-1.63Z" style="fill:#263238"></path><path d="M183.75,206.51a2.8,2.8,0,0,1,1.5-.38,3,3,0,0,1,.77.13,4,4,0,0,1,.76.3c.29.16.57.32.83.49a2.21,2.21,0,0,1,.53.44.74.74,0,0,1,.22.44.59.59,0,0,1-.12.43,1.63,1.63,0,0,1-.51.42l-1.23.71a.29.29,0,0,1-.14,0,.42.42,0,0,1-.15,0l-3.65-2.11a.13.13,0,0,1-.07-.08.07.07,0,0,1,0-.08Zm2.36.43a2.62,2.62,0,0,0-.39-.15,1.55,1.55,0,0,0-.43-.07,1.26,1.26,0,0,0-.43,0,1.54,1.54,0,0,0-.43.17l-.65.38,2.54,1.47.68-.39a.92.92,0,0,0,.29-.24.39.39,0,0,0,.06-.25.45.45,0,0,0-.12-.24,1.11,1.11,0,0,0-.28-.23C186.69,207.26,186.41,207.1,186.11,206.94Z" style="fill:#fafafa"></path><path d="M187.25,204.48a2.44,2.44,0,0,1,1.26-.34,2.38,2.38,0,0,1,1.23.34,1.21,1.21,0,0,1,.54.5.49.49,0,0,1-.05.53l2.08.41.07,0s.06,0,.06.07a.08.08,0,0,1,0,.07l-.42.24a.45.45,0,0,1-.19,0l-.17,0-2-.39-.65.38,1.32.76a.09.09,0,0,1,.06.08.07.07,0,0,1,0,.08l-.4.23a.29.29,0,0,1-.14,0,.42.42,0,0,1-.15,0L186,205.38a.15.15,0,0,1-.07-.09.08.08,0,0,1,.05-.08Zm1.05,1.46.71-.41a.64.64,0,0,0,.33-.33c0-.1-.05-.22-.26-.34a1,1,0,0,0-.59-.15,1.36,1.36,0,0,0-.55.2l-.71.41Z" style="fill:#fafafa"></path><path d="M190.5,204.32a2.31,2.31,0,0,1-.49-.41.8.8,0,0,1-.22-.44.67.67,0,0,1,.11-.44,1.42,1.42,0,0,1,.51-.43,2.24,2.24,0,0,1,.74-.29,2.83,2.83,0,0,1,.77-.07,3.19,3.19,0,0,1,.75.13,3.39,3.39,0,0,1,.71.28l.25.13.27.16a2.26,2.26,0,0,1,.26.16,1.54,1.54,0,0,1,.23.14,2.31,2.31,0,0,1,.5.4.85.85,0,0,1,.21.44.62.62,0,0,1-.11.44,1.51,1.51,0,0,1-.51.43,2.38,2.38,0,0,1-.75.29,2.94,2.94,0,0,1-1.52-.06,3.53,3.53,0,0,1-.7-.28l-.24-.13-.27-.16-.27-.15Zm2.25-1.27a1.85,1.85,0,0,0-.86-.23,1.37,1.37,0,0,0-.78.19c-.22.13-.33.28-.32.44s.14.34.4.5l.47.28.49.27a1.81,1.81,0,0,0,.85.23,1.42,1.42,0,0,0,.77-.19c.23-.13.34-.28.33-.44s-.14-.33-.4-.5l-.46-.28Z" style="fill:#fafafa"></path><path d="M198.74,202.43a.39.39,0,0,1-.18,0h-.15l-3.72-.56,2.33,1.34a.15.15,0,0,1,.07.09.08.08,0,0,1-.05.08l-.4.23a.18.18,0,0,1-.13,0,.24.24,0,0,1-.15,0l-3.66-2.11a.13.13,0,0,1-.07-.08.1.1,0,0,1,.05-.08l.35-.2a.25.25,0,0,1,.17,0h.15l3.72.56-2.33-1.34a.18.18,0,0,1-.07-.09.1.1,0,0,1,.05-.08l.4-.23a.2.2,0,0,1,.14,0,.32.32,0,0,1,.14,0l3.66,2.12a.13.13,0,0,1,.07.08.1.1,0,0,1,0,.08Z" style="fill:#fafafa"></path><path d="M201.55,200a.21.21,0,0,1,.14,0,.24.24,0,0,1,.15,0l.4.23a.13.13,0,0,1,.07.08.07.07,0,0,1-.05.08l-2.15,1.25a.21.21,0,0,1-.14,0,.24.24,0,0,1-.15,0l-3.65-2.11s-.07,0-.07-.08a.08.08,0,0,1,.05-.08l2.11-1.22a.29.29,0,0,1,.14,0,.33.33,0,0,1,.14,0l.41.23a.12.12,0,0,1,.06.09.07.07,0,0,1,0,.08l-1.59.91.9.52,1.48-.85a.26.26,0,0,1,.14,0,.33.33,0,0,1,.14,0l.41.23a.12.12,0,0,1,.06.09.07.07,0,0,1,0,.08l-1.48.85.94.54Z" style="fill:#fafafa"></path><polygon points="203.77 201.11 187.74 210.36 187.01 209.94 203.04 200.69 203.77 201.11" style="fill:#F13024"></polygon><path d="M305,287.92c-6,6.82-15.33,13.19-20.83,14.22s-5.11-3.66.89-10.48,15.33-13.19,20.84-14.23S311,281.1,305,287.92Z" style="fill:#455a64"></path><path d="M283.46,303c-5.86,1.09-5.43-3.92,1-11.18s16.34-14.06,22.2-15.16,5.43,3.92-1,11.18S289.32,301.86,283.46,303Zm21.73-24.71c-5.13,1-13.86,6.92-19.46,13.28s-6,10.76-.84,9.8,13.87-6.92,19.46-13.29S310.33,277.28,305.19,278.25Z" style="fill:#37474f"></path><path d="M300.8,288.71c-3.47,3.94-8.85,7.62-12,8.21s-2.95-2.11.52-6.05,8.85-7.62,12-8.22S304.26,284.77,300.8,288.71Z" style="fill:#37474f"></path><path d="M298,289.24c-1.77,2-4.54,3.9-6.17,4.21s-1.51-1.09.27-3.11,4.54-3.9,6.17-4.21S299.77,287.22,298,289.24Z" style="fill:#263238"></path><path d="M296.89,287.15a6.55,6.55,0,0,1-2.88,2c-.76.14-.7-.51.13-1.45a6.52,6.52,0,0,1,2.87-2C297.77,285.56,297.72,286.21,296.89,287.15Z" style="fill:#fafafa"></path></g></g></svg>
